REM DIRINDEX 1\4,1\2\5,1\2\6,1\2\7,1\3\8,1\3\9,1\3\10,1\3\11
REM DIRNAME cjc108,folder01,folder02,folder03,folder04,folder05,folder06,folder07,folder08,folder09,folder10
TITLE ""
FILE "t_k_561-574.mp3" MP3
  TRACK 01 AUDIO
    TITLE "5:cjc108_1689"
    INDEX 01 00:00:00
  TRACK 02 AUDIO
    TITLE "0:"
    INDEX 01 00:01:09
  TRACK 03 AUDIO
    TITLE "6:cjc108_1690"
    INDEX 01 00:01:30
  TRACK 04 AUDIO
    TITLE "0:"
    INDEX 01 00:03:41
  TRACK 05 AUDIO
    TITLE "7:cjc108_1691"
    INDEX 01 00:03:53
  TRACK 06 AUDIO
    TITLE "0:"
    INDEX 01 00:08:11
  TRACK 07 AUDIO
    TITLE "5:cjc108_1692"
    INDEX 01 00:08:73
  TRACK 08 AUDIO
    TITLE "0:"
    INDEX 01 00:10:72
  TRACK 09 AUDIO
    TITLE "6:cjc108_1693"
    INDEX 01 00:11:13
  TRACK 10 AUDIO
    TITLE "0:"
    INDEX 01 00:13:24
  TRACK 11 AUDIO
    TITLE "7:cjc108_1694"
    INDEX 01 00:13:41
  TRACK 12 AUDIO
    TITLE "0:"
    INDEX 01 00:17:72
  TRACK 13 AUDIO
    TITLE "5:cjc108_1695"
    INDEX 01 00:18:54
  TRACK 14 AUDIO
    TITLE "0:"
    INDEX 01 00:20:24
  TRACK 15 AUDIO
    TITLE "6:cjc108_1696"
    INDEX 01 00:20:28
  TRACK 16 AUDIO
    TITLE "0:"
    INDEX 01 00:23:26
  TRACK 17 AUDIO
    TITLE "7:cjc108_1697"
    INDEX 01 00:23:46
  TRACK 18 AUDIO
    TITLE "0:"
    INDEX 01 00:30:38
  TRACK 19 AUDIO
    TITLE "5:cjc108_1698"
    INDEX 01 00:31:31
  TRACK 20 AUDIO
    TITLE "0:"
    INDEX 01 00:32:68
  TRACK 21 AUDIO
    TITLE "6:cjc108_1699"
    INDEX 01 00:33:11
  TRACK 22 AUDIO
    TITLE "0:"
    INDEX 01 00:35:00
  TRACK 23 AUDIO
    TITLE "7:cjc108_1700"
    INDEX 01 00:35:15
  TRACK 24 AUDIO
    TITLE "0:"
    INDEX 01 00:39:27
  TRACK 25 AUDIO
    TITLE "5:cjc108_1701"
    INDEX 01 00:40:03
  TRACK 26 AUDIO
    TITLE "0:"
    INDEX 01 00:41:45
  TRACK 27 AUDIO
    TITLE "6:cjc108_1702"
    INDEX 01 00:41:67
  TRACK 28 AUDIO
    TITLE "0:"
    INDEX 01 00:43:03
  TRACK 29 AUDIO
    TITLE "7:cjc108_1703"
    INDEX 01 00:43:15
  TRACK 30 AUDIO
    TITLE "0:"
    INDEX 01 00:48:16
  TRACK 31 AUDIO
    TITLE "5:cjc108_1704"
    INDEX 01 00:48:69
  TRACK 32 AUDIO
    TITLE "0:"
    INDEX 01 00:50:29
  TRACK 33 AUDIO
    TITLE "6:cjc108_1705"
    INDEX 01 00:50:58
  TRACK 34 AUDIO
    TITLE "0:"
    INDEX 01 00:52:00
  TRACK 35 AUDIO
    TITLE "7:cjc108_1706"
    INDEX 01 00:52:22
  TRACK 36 AUDIO
    TITLE "0:"
    INDEX 01 00:56:12
  TRACK 37 AUDIO
    TITLE "5:cjc108_1707"
    INDEX 01 00:57:05
  TRACK 38 AUDIO
    TITLE "0:"
    INDEX 01 00:58:42
  TRACK 39 AUDIO
    TITLE "6:cjc108_1708"
    INDEX 01 00:58:56
  TRACK 40 AUDIO
    TITLE "0:"
    INDEX 01 00:59:65
  TRACK 41 AUDIO
    TITLE "7:cjc108_1709"
    INDEX 01 01:00:04
  TRACK 42 AUDIO
    TITLE "0:"
    INDEX 01 01:03:71
  TRACK 43 AUDIO
    TITLE "5:cjc108_1710"
    INDEX 01 01:04:62
  TRACK 44 AUDIO
    TITLE "0:"
    INDEX 01 01:06:20
  TRACK 45 AUDIO
    TITLE "6:cjc108_1711"
    INDEX 01 01:06:36
  TRACK 46 AUDIO
    TITLE "0:"
    INDEX 01 01:09:12
  TRACK 47 AUDIO
    TITLE "7:cjc108_1712"
    INDEX 01 01:09:24
  TRACK 48 AUDIO
    TITLE "0:"
    INDEX 01 01:13:14
  TRACK 49 AUDIO
    TITLE "5:cjc108_1713"
    INDEX 01 01:14:06
  TRACK 50 AUDIO
    TITLE "0:"
    INDEX 01 01:15:50
  TRACK 51 AUDIO
    TITLE "6:cjc108_1714"
    INDEX 01 01:15:64
  TRACK 52 AUDIO
    TITLE "0:"
    INDEX 01 01:18:62
  TRACK 53 AUDIO
    TITLE "7:cjc108_1715"
    INDEX 01 01:19:03
  TRACK 54 AUDIO
    TITLE "0:"
    INDEX 01 01:26:21
  TRACK 55 AUDIO
    TITLE "5:cjc108_1716"
    INDEX 01 01:27:04
  TRACK 56 AUDIO
    TITLE "0:"
    INDEX 01 01:28:45
  TRACK 57 AUDIO
    TITLE "6:cjc108_1717"
    INDEX 01 01:28:63
  TRACK 58 AUDIO
    TITLE "0:"
    INDEX 01 01:30:18
  TRACK 59 AUDIO
    TITLE "7:cjc108_1718"
    INDEX 01 01:30:30
  TRACK 60 AUDIO
    TITLE "0:"
    INDEX 01 01:34:59
  TRACK 61 AUDIO
    TITLE "5:cjc108_1719"
    INDEX 01 01:35:39
  TRACK 62 AUDIO
    TITLE "0:"
    INDEX 01 01:36:64
  TRACK 63 AUDIO
    TITLE "6:cjc108_1720"
    INDEX 01 01:37:05
  TRACK 64 AUDIO
    TITLE "0:"
    INDEX 01 01:38:30
  TRACK 65 AUDIO
    TITLE "7:cjc108_1721"
    INDEX 01 01:38:53
  TRACK 66 AUDIO
    TITLE "0:"
    INDEX 01 01:42:51
  TRACK 67 AUDIO
    TITLE "5:cjc108_1722"
    INDEX 01 01:43:41
  TRACK 68 AUDIO
    TITLE "0:"
    INDEX 01 01:45:06
  TRACK 69 AUDIO
    TITLE "6:cjc108_1723"
    INDEX 01 01:45:26
  TRACK 70 AUDIO
    TITLE "0:"
    INDEX 01 01:47:60
  TRACK 71 AUDIO
    TITLE "7:cjc108_1724"
    INDEX 01 01:48:01
  TRACK 72 AUDIO
    TITLE "0:"
    INDEX 01 01:54:15
  TRACK 73 AUDIO
    TITLE "5:cjc108_1725"
    INDEX 01 01:54:70
  TRACK 74 AUDIO
    TITLE "0:"
    INDEX 01 01:56:08
  TRACK 75 AUDIO
    TITLE "6:cjc108_1726"
    INDEX 01 01:56:30
  TRACK 76 AUDIO
    TITLE "0:"
    INDEX 01 01:58:72
  TRACK 77 AUDIO
    TITLE "7:cjc108_1727"
    INDEX 01 01:59:18
  TRACK 78 AUDIO
    TITLE "0:"
    INDEX 01 02:02:67
  TRACK 79 AUDIO
    TITLE "5:cjc108_1728"
    INDEX 01 02:03:57
  TRACK 80 AUDIO
    TITLE "0:"
    INDEX 01 02:04:70
  TRACK 81 AUDIO
    TITLE "6:cjc108_1729"
    INDEX 01 02:05:29
  TRACK 82 AUDIO
    TITLE "0:"
    INDEX 01 02:08:01
  TRACK 83 AUDIO
    TITLE "7:cjc108_1730"
    INDEX 01 02:08:25
  TRACK 84 AUDIO
    TITLE "0:"
    INDEX 01 02:14:69
